<svg id="Icon_Set" enable-background="new 0 0 256 256" height="512" viewBox="0 0 256 256" width="512" xmlns="http://www.w3.org/2000/svg"><g><g><g><g><path d="m105.094 95.794v35.676h-24.26c-9.853 0-17.838-7.985-17.838-17.838 0-4.927 1.996-9.386 5.224-12.614s7.687-5.224 12.614-5.224z" fill="#ff4a73"/><path d="m147.192 113.632c0 4.927-1.996 9.386-5.224 12.614s-7.696 5.224-12.614 5.224h-24.26v-35.676h24.26c9.845 0 17.838 7.984 17.838 17.838z" fill="#30b6ff"/></g><g><path d="m190.643 100.941-21.77-10.37-21.78-10.37c-6.45-3.08-7.15-11.98-1.27-16.03l10.98-7.56c-13.98-15.37-33.83-24.31-54.92-24.31-41.749 0-75.558 34.623-74.222 76.667 1.281 40.323 35.16 72.511 75.498 71.843 17.922-.297 34.652-6.849 47.749-18.434 3.438-3.041 8.865-.531 8.865 4.059v16.156c-16.49 12.52-36.85 19.58-57.89 19.58-52.72 0-95.61-42.89-95.61-95.61s42.89-95.61 95.61-95.61c28.15 0 54.58 12.34 72.65 33.46l11.03-7.59c5.88-4.05 13.95-.2 14.51 6.92l1.91 24.04 1.91 24.04c.56 7.129-6.8 12.189-13.25 9.119z" fill="#5fcdff"/></g></g><g><g><g><g><path d="m245.622 200.887-11.439-6.604c-2.178-1.257-3.387-3.714-3.013-6.201.297-1.971.45-3.989.45-6.043 0-1.959-.142-3.884-.414-5.768-.358-2.482.844-4.927 3.016-6.181l12.426-7.174c2.945-1.7 3.954-5.466 2.254-8.411l-5.336-9.243c-1.7-2.945-5.466-3.954-8.411-2.254l-12.686 7.324c-2.125 1.227-4.799 1.111-6.751-.377-2.786-2.124-5.857-3.893-9.146-5.241-2.315-.948-3.788-3.248-3.788-5.749v-15.832c0-3.401-2.757-6.157-6.157-6.157h-10.673c-3.401 0-6.157 2.757-6.157 6.157v15.901c0 2.477-1.475 4.734-3.768 5.672-2.988 1.223-5.795 2.793-8.374 4.662-1.945 1.41-4.551 1.507-6.631.306l-14.624-8.443c-2.945-1.7-6.711-.691-8.411 2.254l-5.336 9.243c-1.7 2.945-.691 6.711 2.254 8.411l13.624 7.866c2.227 1.286 3.415 3.819 2.988 6.356-.366 2.172-.558 4.403-.558 6.679 0 1.051.042 2.091.124 3.121.186 2.355-1.013 4.602-3.059 5.783l-14.145 8.167c-2.945 1.7-3.954 5.466-2.254 8.411l5.336 9.243c1.7 2.945 5.466 3.954 8.411 2.254l12.421-7.171c2.279-1.316 5.133-1.028 7.122.694 2.803 2.426 5.943 4.473 9.341 6.059 2.143 1 3.486 3.181 3.486 5.546v14.746c0 3.401 2.757 6.157 6.157 6.157h10.673c3.401 0 6.157-2.757 6.157-6.157v-13.064c0-2.591 1.617-4.918 4.059-5.784 3.88-1.377 7.486-3.328 10.716-5.756 1.951-1.466 4.603-1.588 6.717-.367l11.906 6.874c2.945 1.7 6.711.691 8.411-2.254l5.336-9.243c1.701-2.946.691-6.711-2.254-8.412z" fill="#a4a4a5"/></g><path id="XMLID_15_" d="m207.171 197.916c-9.333 9.333-24.471 9.333-33.805 0-9.343-9.333-9.343-24.471 0-33.805 9.333-9.343 24.471-9.343 33.805 0 9.333 9.334 9.333 24.472 0 33.805z" fill="#796e84"/><path d="m186.989 164.114c2.915-2.915 6.384-4.922 10.081-6.021-8.128-2.416-17.283-.4-23.703 6.021-9.345 9.327-9.345 24.466 0 33.802 6.421 6.421 15.575 8.428 23.703 6.021-3.696-1.108-7.165-3.106-10.081-6.021-9.345-9.336-9.345-24.475 0-33.802z" fill="#87828e"/></g></g></g></g><g fill="#5f266d"><path d="m129.351 91.79c-7.018 0-41.473 0-48.52 0-12.026 0-21.83 9.726-21.83 21.84 0 12.04 9.79 21.84 21.83 21.84h48.52c12.081 0 21.84-9.78 21.84-21.84 0-12.04-9.8-21.84-21.84-21.84zm-28.26 35.68h-20.26c-7.63 0-13.83-6.21-13.83-13.84 0-7.673 6.21-13.84 13.83-13.84h20.26zm28.26 0h-20.26v-27.68h20.26c7.63 0 13.84 6.21 13.84 13.84 0 7.625-6.152 13.84-13.84 13.84z"/><path d="m247.621 197.42-11.44-6.6c-.76-.44-1.18-1.3-1.06-2.14.627-4.142.687-8.542.05-12.98-.13-.86.29-1.7 1.05-2.15l12.43-7.17c4.879-2.823 6.507-9.028 3.72-13.88l-5.34-9.24c-2.8-4.85-9.03-6.52-13.88-3.72l-12.68 7.33c-.75.43-1.69.39-2.33-.09-3.08-2.36-6.47-4.3-10.05-5.77-.78-.32-1.31-1.14-1.31-2.04v-15.84c0-5.6-4.55-10.15-10.15-10.15h-10.68c-5.6 0-10.15 4.55-10.15 10.15v15.91c0 .86-.52 1.65-1.29 1.96-3.25 1.34-6.35 3.06-9.2 5.13-.66.47-1.55.5-2.29.08l-14.62-8.44c-4.85-2.8-11.08-1.14-13.88 3.71l-5.33 9.25c-2.822 4.877-1.132 11.083 3.72 13.87l4.52 2.61c-45.991 26.962-104.094-5.69-105.77-58.37-1.263-39.737 30.591-72.54 70.22-72.54 18.19 0 35.71 7.13 48.75 19.7l-7.08 4.88c-8.395 5.78-7.428 18.509 1.82 22.93l43.55 20.74c9.243 4.387 19.768-2.842 18.96-13.05l-3.82-48.07c-.808-10.183-12.311-15.71-20.77-9.9l-8.11 5.58c-18.85-20.48-45.36-32.16-73.3-32.16-54.92 0-99.61 44.69-99.61 99.61 0 64.937 61.589 112.878 124.65 96.36-.34 2.2.04 4.53 1.24 6.6l5.34 9.24c2.8 4.85 9.02 6.52 13.87 3.72l12.42-7.17c.8-.46 1.8-.35 2.51.25 3.1 2.69 6.56 4.93 10.27 6.66.71.34 1.17 1.09 1.17 1.93v14.74c0 5.6 4.56 10.16 10.16 10.16h10.67c5.6 0 10.16-4.56 10.16-10.16v-13.06c0-.91.56-1.72 1.4-2.02 4.22-1.5 8.19-3.62 11.78-6.32.66-.5 1.56-.54 2.31-.11l11.91 6.88c4.861 2.813 11.083 1.132 13.87-3.72l5.34-9.24c2.789-4.82 1.159-11.066-3.72-13.88zm-237.35-90.86c0-50.51 41.1-91.61 91.61-91.61 26.81 0 52.18 11.69 69.61 32.06 1.33 1.56 3.63 1.86 5.31.7l11.03-7.59c3.352-2.314 7.931-.12 8.25 3.94l3.83 48.07c.309 4.049-3.854 6.951-7.55 5.2l-43.54-20.74c-3.697-1.767-4.063-6.819-.73-9.12l10.98-7.56c2.01-1.396 2.315-4.219.69-5.99-14.81-16.28-35.9-25.62-57.88-25.62-44.088 0-79.63 36.498-78.22 80.79 1.932 60.607 70.492 96.731 121.62 62.66 4.586 2.641.793 1.818 1.82 13.73.02.25-.01.49-.08.72-61.543 34.797-136.75-10.125-136.75-79.64zm234.14 100.74-5.33 9.24c-.6 1.03-1.92 1.38-2.95.79l-11.91-6.87c-3.53-2.04-7.89-1.79-11.12.63-2.94 2.21-6.19 3.96-9.65 5.18-4.02 1.43-6.72 5.27-6.72 9.56v13.06c0 1.19-.97 2.16-2.16 2.16h-10.67c-1.19 0-2.16-.97-2.16-2.16v-14.74c0-3.93-2.27-7.53-5.79-9.18-3.04-1.41-5.87-3.25-8.42-5.45-3.307-2.872-8.041-3.271-11.74-1.14l-12.42 7.17c-1.03.6-2.35.24-2.94-.79l-5.34-9.24c-.6-1.03-.24-2.35.79-2.95l14.14-8.16c3.425-1.995 5.364-5.74 5.05-9.56-.213-2.89-.118-5.767.39-8.83.697-4.172-1.287-8.361-4.93-10.48-7.043-4.063-4.014-2.313-13.62-7.87-.981-.549-1.421-1.852-.79-2.94l5.33-9.25c.6-1.03 1.92-1.38 2.95-.79l14.62 8.45c3.47 2 7.78 1.79 10.98-.53 2.34-1.7 4.88-3.11 7.54-4.2 3.8-1.56 6.26-5.24 6.26-9.37v-15.91c0-1.19.96-2.15 2.15-2.15h10.68c1.19 0 2.15.96 2.15 2.15v15.84c0 4.18 2.47 7.88 6.28 9.45 2.93 1.2 5.7 2.79 8.23 4.72 3.23 2.46 7.62 2.71 11.18.66l12.68-7.33c1.03-.59 2.36-.24 2.95.79l5.34 9.25c.577.974.268 2.326-.79 2.94l-12.43 7.18c-3.61 2.08-5.57 6.09-4.97 10.21.5 3.44.5 7.072-.04 10.65-.62 4.13 1.33 8.16 4.97 10.26l11.44 6.6c1.03.6 1.39 1.92.79 2.95z"/><path d="m170.541 161.28c-10.994 10.993-10.844 28.667 0 39.46 10.798 10.798 28.439 11.021 39.46 0 10.895-10.895 10.865-28.595 0-39.46-10.959-10.959-28.609-10.872-39.46 0zm33.8 33.81c-7.794 7.794-20.385 7.765-28.15 0-7.7-7.7-7.858-20.303.01-28.15 7.715-7.736 20.291-7.849 28.14 0 7.76 7.76 7.76 20.39 0 28.15z"/><path d="m187.551 76.98c-2.19.29-3.73 2.3-3.44 4.49l.09.72c.312 2.322 2.513 3.769 4.49 3.44 2.19-.29 3.73-2.3 3.44-4.49l-.09-.72c-.29-2.19-2.3-3.73-4.49-3.44z"/><path d="m182.141 66.6c.278 2.072 2.141 3.701 4.49 3.44 2.19-.29 3.73-2.3 3.44-4.49l-1.44-10.91c-.29-2.19-2.29-3.73-4.49-3.44-2.19.29-3.73 2.3-3.44 4.49z"/></g></g></svg>